<svg width="375" height="250" viewBox="0 0 375 250" fill="none" xmlns="http://www.w3.org/2000/svg">
<path d="M0 0H375V250H0V0Z" fill="#19472C"/>
<path d="M187.607 171.388C213.335 171.388 234.192 150.531 234.192 124.803C234.192 99.0754 213.335 78.2187 187.607 78.2187C161.879 78.2187 141.022 99.0754 141.022 124.803C141.022 150.531 161.879 171.388 187.607 171.388Z" fill="#F8C700"/>
<path d="M202.132 163.136C223.303 163.136 240.465 145.974 240.465 124.803C240.465 103.633 223.303 86.4708 202.132 86.4708C180.962 86.4708 163.8 103.633 163.8 124.803C163.8 145.974 180.962 163.136 202.132 163.136Z" fill="#19472C"/>
<path d="M60.7531 114.026C87.7063 114.026 109.556 92.1763 109.556 65.2231C109.556 38.2699 87.7063 16.42 60.7531 16.42C33.7999 16.42 11.95 38.2699 11.95 65.2231C11.95 92.1763 33.7999 114.026 60.7531 114.026Z" fill="#F8C700"/>
<path d="M299.41 183.367L302.49 192.943L311.898 189.381L306.331 197.759L314.982 202.893L304.96 203.765L306.34 213.729L299.41 206.438L292.48 213.729L293.86 203.765L283.839 202.893L292.49 197.759L286.923 189.381L296.33 192.943L299.41 183.367Z" fill="#F8C700"/>
<path d="M243.509 94.8561L246.588 104.432L255.996 100.87L250.429 109.248L259.08 114.382L249.058 115.254L250.438 125.218L243.509 117.927L236.579 125.218L237.959 115.254L227.937 114.382L236.588 109.248L231.021 100.87L240.429 104.432L243.509 94.8561Z" fill="#F8C700"/>
<path d="M299.41 34.2959L302.49 43.8722L311.898 40.3095L306.331 48.6882L314.982 53.8219L304.96 54.6937L306.34 64.658L299.41 57.3664L292.48 64.658L293.86 54.6938L283.839 53.8219L292.49 48.6882L286.923 40.3095L296.33 43.8722L299.41 34.2959Z" fill="#F8C700"/>
<path d="M349.101 79.9489L352.181 89.5252L361.588 85.9625L356.021 94.3413L364.672 99.4749L354.651 100.347L356.031 110.311L349.101 103.019L342.171 110.311L343.551 100.347L333.529 99.475L342.18 94.3413L336.613 85.9625L346.021 89.5252L349.101 79.9489Z" fill="#F8C700"/>
<path d="M321.771 124.803L324.205 130.77L330.632 131.241L325.709 135.4L327.247 141.658L321.771 138.261L316.294 141.658L317.833 135.4L312.91 131.241L319.337 130.77L321.771 124.803Z" fill="#F8C700"/>
<path d="M48.9262 102.242C48.1308 104.717 47.292 105.56 44.0672 106.195C40.8859 106.83 36.027 104.333 39.0343 101.913C41.9049 99.6572 44.9247 99.0823 47.4971 97.0509C51.4799 93.8642 56.9478 87.2717 59.545 81.0407C62.3846 74.2237 61.8937 55.0432 61.7632 45.3243C61.7632 45.2148 61.4215 45.1436 61.378 45.0998C61.1916 44.8808 61.0176 45.1655 61.3096 43.7419C61.3842 43.375 61.7446 42.9972 61.7446 42.6304C61.7384 41.9733 64.5593 43.3476 65.2987 44.5249C65.4727 44.7932 64.7581 45.5597 64.7581 45.7076C64.6649 55.0323 65.9076 73.4407 62.8382 81.7744C60.943 86.9323 57.4759 90.9184 54.3443 94.6034C52.4616 96.9633 49.7463 99.5149 48.9262 102.242Z" fill="#812400" stroke="#812400" stroke-width="0.0913806"/>
<path d="M91.3915 42.5706C91.1865 42.7896 91.2176 43.7533 91.2176 43.7533C91.056 43.8299 88.3967 41.9245 88.3967 42.0121C88.3967 42.4118 88.3345 43.2386 88.3345 43.2386C88.3345 43.2386 85.5819 41.1305 85.4701 41.3495C85.3458 41.6014 85.4825 42.8279 85.4825 42.8279L83.314 40.9005C83.0717 40.6925 83.109 41.1688 83.0903 41.9299C83.0841 42.0668 80.0892 40.1504 79.909 40.1175C79.5176 40.0464 79.3995 41.1141 79.4182 41.3769C79.4368 41.574 76.6532 40.1011 76.7774 40.2928L76.5724 41.4262C75.7957 41.344 73.9503 40.7856 72.8443 40.9334C72.4839 40.9772 72.5025 41.1196 72.8194 41.2291C78.1692 42.9757 82.2888 45.6094 84.6872 49.278C85.5012 50.5319 85.7497 51.6215 85.5322 51.8952C85.5322 51.8952 84.5754 50.2252 83.488 49.9624C83.3451 49.9296 83.2457 51.0356 83.0965 50.9699C83.0965 50.9699 82.2763 49.2999 81.6861 48.6812C81.5245 48.5169 81.2636 49.5572 81.0896 49.4039C81.0896 49.4039 80.6671 48.2869 79.8282 47.5039C79.7102 47.3944 79.4927 48.5662 79.3622 48.4676C78.4923 47.8215 77.6846 46.2063 77.3615 46.0858C77.1316 45.9434 77.0943 47.4273 76.8768 47.3013C76.8768 47.3013 75.6404 45.2973 74.9072 44.9359C74.4287 44.7005 74.4474 46.031 74.4474 46.031C73.5091 45.2809 72.4715 44.038 71.9806 43.5014C71.7507 43.2495 71.875 45.1331 71.6389 45.2097C71.3282 45.3028 69.2964 43.7642 69.0727 43.7313C68.9174 43.7149 68.7434 44.1694 69.1348 44.5417L71.6451 46.8743C71.1604 46.9509 70.974 46.8414 70.6323 46.9126C69.6008 47.1316 72.5585 48.5005 72.5025 48.7523C72.5025 48.7523 71.0797 48.7304 71.5581 48.9549C71.8998 49.1192 73.7825 51.0685 73.7825 50.9973C73.7825 50.9644 72.8381 51.0137 72.8443 51.2327C72.8505 51.6379 74.4039 53.7241 74.4225 53.7131C74.5033 53.6474 73.5837 53.6255 73.4594 53.8281C73.2295 54.2114 75.0563 55.8978 74.7021 56.1825C74.6524 56.2263 73.6582 56.199 73.2171 56.2756C73.0058 56.3139 72.4093 59.3419 72.5585 59.2214C72.3097 57.9688 71.9587 56.7336 71.5084 55.5255C71.2598 55.0108 70.4583 56.3085 70.3962 56.1935C70.4272 56.1935 70.5577 54.3483 70.4459 53.505C70.4148 53.2696 69.837 53.7514 69.8494 53.5269C69.868 53.0177 69.9177 52.4702 69.7872 51.9719C69.694 51.5996 69.2032 52.6509 69.0106 52.3661C69.0106 52.3661 69.6071 50.5373 69.3585 50.0226C69.197 49.6832 68.7993 50.844 68.5383 50.8878C68.5383 50.8878 68.6875 49.4642 68.4141 49.1028L67.5877 49.8146C67.4075 49.5846 67.4448 47.367 67.277 47.1645C67.1403 46.9892 66.2828 47.9912 66.1586 47.8379C66.0405 47.6901 66.519 46.0475 66.4071 45.9215C66.258 45.7299 65.3197 46.376 65.3011 46.3596C64.9221 46.0529 64.9283 45.2754 64.773 44.9907C64.338 44.2132 61.865 44.1146 61.573 44.6622C61.4301 44.9359 61.5295 45.2809 61.5854 45.7025C61.5668 45.7135 60.3427 45.7846 60.3427 45.708C60.3427 45.708 60.4856 46.6279 60.3987 47.6353C60.3862 47.7722 59.1622 47.6025 59.1435 47.7394C59.0379 48.6866 59.3051 48.7797 59.3051 48.7797C59.2927 48.8454 58.4787 48.6702 58.4663 48.7469C58.4128 49.3015 58.5749 49.8556 58.9261 50.3183C58.9882 50.395 57.7641 50.2417 57.7455 50.3347C57.5964 51.0466 57.5715 51.616 57.7206 52.6235C57.7331 52.7001 56.5277 51.9117 56.509 51.9938C56.3226 52.837 56.5401 53.7514 56.4282 54.633C56.4034 54.8356 55.6329 54.0252 55.5584 54.2606C55.4962 54.4906 55.7323 56.1661 55.6205 56.2647C55.6205 56.2647 54.3219 56.2099 54.21 56.2975C53.1848 57.075 53.3774 58.4329 53.3774 58.4329C53.0978 58.2632 53.2034 56.626 53.4893 55.1367C53.5203 54.9779 52.4951 55.0382 52.5262 54.8903C52.5262 54.8903 53.6446 54.3428 54.0174 52.8261C54.0982 52.503 52.9363 52.5687 52.9363 52.5687C53.2594 51.9719 53.8248 51.8569 54.3032 51.282C54.4586 51.0958 53.0978 51.0082 53.0978 50.9535C53.0978 50.384 54.2473 50.1102 54.8438 49.5134C55.0986 49.2616 53.6011 49.2451 53.6011 49.2451C54.036 48.7523 55.49 48.5333 56.2294 47.8872C56.6271 47.5313 54.7568 47.1809 54.7817 47.1207C54.9867 46.6005 56.7451 46.4362 57.6026 45.8449C57.7766 45.7244 56.4842 45.3138 56.4842 45.3138C56.6146 45.0947 59.4294 43.5999 58.0003 43.7368C57.3913 43.7916 56.1673 44.487 56.0741 44.3829C56.0741 44.3829 56.1238 43.5069 55.9995 43.4083C55.5273 43.0141 53.9056 45.0783 53.3588 44.9962C53.3588 44.9962 53.1537 43.5178 52.9052 43.474C52.3087 43.3864 51.5879 45.6313 51.0039 45.6313C50.9231 45.6313 50.8796 44.3336 50.5813 44.2625C50.2396 44.1803 49.8544 45.7189 49.4256 46.0584C49.028 46.3705 49.0218 44.8538 48.7856 45.144C48.388 45.6094 48.2886 46.5786 47.748 47.0057C47.3938 47.2794 47.3317 45.6697 46.9402 45.8832C46.4804 46.1351 46.5861 46.9673 46.0766 47.378C45.828 47.5751 45.6665 46.3158 45.3931 46.5019C45.1445 46.6662 44.9768 48.1993 44.7096 48.4457C44.3741 48.7578 43.9826 47.6353 43.6347 47.8106C43.3861 47.942 43.442 49.2725 43.2059 49.5627C42.7275 50.1541 42.4789 48.8454 42.1621 49.048C41.9384 49.1849 41.4599 50.7126 41.2611 50.833C40.82 51.1068 40.5776 50.1376 40.2359 50.2745C39.9873 50.3731 39.4965 52.3442 39.2914 52.295C39.1672 52.2621 38.8316 47.7996 40.9629 45.916C44.4238 42.8498 53.1475 40.6268 53.0854 40.2873C52.9487 39.6083 51.6873 39.685 50.805 39.8493C50.6497 39.8712 50.7305 38.6447 50.7118 38.6447C49.9227 38.6228 49.2206 39.0006 48.4625 39.3674C48.2326 39.4879 48.941 38.1409 48.6924 38.2559C47.7231 38.7104 46.642 38.8418 45.9958 39.3893C45.8218 39.5317 46.1884 38.3545 46.1884 38.3545C45.71 38.2614 44.7593 38.8199 44.3803 39.351C44.1939 39.6083 44.3927 37.9766 44.2498 38.2668C44.2498 38.2668 42.5597 38.7268 42.3858 39.2962C42.3858 39.2962 42.2428 38.2614 42.0129 38.3161C41.3419 38.4585 40.7454 39.3784 40.2172 39.5152C40.2172 39.5152 40.4409 38.5899 40.267 38.6228C38.9994 38.8856 37.62 39.5152 37.62 39.5152C38.3346 38.0697 41.0499 36.5585 45.8218 36.1533C48.3109 35.9992 50.8122 36.1244 53.2656 36.5256C55.7323 36.9856 57.6772 37.2484 57.2795 36.9363C55.6516 35.6441 53.0108 35.4853 52.2838 35.1842C51.7681 34.9706 54.036 34.2643 53.5887 34.1657C53.1351 34.0781 51.1095 33.9467 51.1095 33.9467C50.6746 33.6675 52.5821 33.1254 52.2963 32.7202C51.7246 31.9153 48.3445 32.649 48.0525 32.3369C47.9593 32.2384 49.5064 31.4992 49.4443 31.3897C49.1957 30.9845 46.1884 31.6963 46.1138 31.3349C46.1138 31.3349 47.0272 30.7874 47.6796 30.3384C47.7542 30.2836 44.9892 29.6813 44.9892 29.6813C45.3314 29.4773 45.7034 29.3152 46.0952 29.1995C46.6793 29.0188 43.6719 28.3891 43.6719 28.3891C47.4808 26.9819 57.3727 30.979 59.3362 35.1294C59.8457 36.1205 59.8643 35.0418 59.7525 34.2041C59.653 33.3006 59.5101 32.5067 59.6282 31.6854C59.6717 31.439 60.4359 32.3369 60.4981 32.096C60.6907 31.2199 60.1066 30.2508 60.3738 29.2707C60.4608 28.9421 61.486 30.2398 61.6165 29.9113C61.9955 29.0079 61.3431 27.7375 61.6041 26.4891C61.7097 26.0018 62.679 27.5295 63.0021 27.0969C63.3811 26.5932 63.2196 24.7206 63.3998 24.4358C63.5427 24.2059 64.4064 25.3338 64.4809 25.1203C65.649 21.6872 64.0957 21.2601 66.345 23.1929C66.4195 23.2641 66.9166 21.167 67.0036 21.2327C67.9232 22.8206 69.4269 20.1048 69.9488 20.3566C70.334 20.5483 68.8925 21.605 68.8801 22.0759C68.8739 22.3059 70.2036 22.3223 70.2036 22.3223C70.1725 22.7111 67.6746 23.8116 67.5939 24.2387C67.5317 24.5946 69.3585 24.5125 69.3585 24.5125C69.3026 24.9889 67.2211 25.4433 67.1092 25.958C67.0471 26.2318 68.0847 26.2975 68.0475 26.5877C67.9915 27.0257 66.0343 27.8909 65.9722 28.3398C65.9287 28.6465 67.2211 28.7779 67.2521 29.0626C67.2894 29.413 64.6549 30.5903 64.6487 30.9243C64.6487 31.3842 65.705 31.1433 66.1772 31.3787C66.8545 31.7072 64.0211 33.0433 63.8969 33.4265C63.8037 33.7551 65.0339 33.4649 65.0774 33.766C65.1271 34.1657 63.6856 34.768 63.3563 35.4525C63.027 36.1259 63.3625 36.3012 63.8347 36.0329C64.7854 35.4908 68.6129 32.211 69.6319 31.3349C71.7077 29.6843 74.3592 28.7053 77.1502 28.5589C77.4609 28.6355 75.5223 29.7416 75.5099 30.1413C75.5099 30.2453 76.3798 30.3986 76.3425 30.426C75.8081 30.864 74.1367 31.3732 74.1367 31.3732L74.6151 32.0686C74.5033 32.2712 73.7142 32.326 72.4528 32.6655C72.4528 32.6655 73.3973 33.1363 73.3227 33.1801C72.6579 33.6182 71.3593 33.9303 71.3593 33.9303L72.6392 34.2807C72.7138 34.4778 69.7562 35.4306 69.7562 35.4306C69.7562 35.4306 70.682 36.0767 70.6385 36.1095C70.4148 36.2902 68.2463 36.6954 68.2463 36.6954C68.209 36.7228 69.7748 37.117 69.7686 37.128C69.197 37.5879 67.625 37.7357 67.2584 38.4968C67.2584 38.4968 67.0471 38.9294 67.6684 38.8472C70.1103 38.13 73.8944 36.6516 81.2325 37.232C88.7384 38.0205 94.4548 43.2824 94.3554 43.8025C94.3554 43.8025 91.6712 42.253 91.3915 42.5706Z" fill="#19472C" stroke="#19472C" stroke-width="0.0913806"/>
</svg>