<svg width="450" height="300" viewBox="0 0 450 300" fill="none" xmlns="http://www.w3.org/2000/svg">
<g clip-path="url(#clip0_2_90)">
<path d="M0 0H450V300H0V0Z" fill="#CF142B"/>
<path d="M145.009 107.868C145.234 108.109 147.966 109.856 148.018 109.765C148.069 109.675 155.369 108.267 155.318 108.358C155.267 108.448 151.102 113.005 151.285 113.106C151.468 113.207 155.321 118.053 155.412 118.103C155.503 118.154 147.845 117.237 147.845 117.237L142.633 121.098L141.667 115.836C141.667 115.836 135.349 113.411 135.257 113.361C135.166 113.311 140.787 111.684 140.787 111.684L142.585 107.475C142.585 107.475 144.724 107.947 145.009 107.868Z" fill="#F9DD16" stroke="black" stroke-width="1.04835"/>
<path d="M238.195 121.146C238.354 116.742 230.182 96.5254 228.829 93.4135C226.235 90.0013 223.547 84.6413 222.467 80.0541C221.821 75.4364 219.44 71.7555 215.959 70.4205C211.965 68.1681 207.97 68.8704 204.14 69.0725C202.254 69.4034 200.619 70.3456 199.666 71.781C197.509 74.6146 196.395 74.3579 194.927 75.5603C183.124 76.9783 171.823 82.5756 163.242 86.3623C158.667 89.2703 154.811 90.9203 153.04 91.2361C148.269 91.0989 144.872 88.764 143.254 87.5279L127.519 72.5132C122.95 68.9256 121.628 73.8476 122.503 74.6341C123.959 77.9886 120.509 79.8889 132.971 92.2068L137.518 102.198C137.518 102.198 137.16 104.878 137.383 105C139.549 110.571 143.321 109.322 145.131 107.839L149.061 104.544C149.061 104.544 156.705 102.434 156.83 102.217C164.906 103.667 185.944 100.43 189.444 98.9329C192.606 97.3238 192.758 98.7784 195.52 96.7112C197.818 95.3195 196.543 96.4449 200.822 92.8451C202.137 91.8041 203.094 93.5897 203.291 94.8222C203.145 106.434 204.347 113.895 205.046 125.5L222.438 134.981L238.195 121.146Z" fill="white" stroke="black" stroke-width="1.36286"/>
<path d="M137.232 82.589C137.39 82.7345 133.985 92.4997 133.985 92.4997C133.985 92.4997 131.234 89.6221 131.26 89.5772L133.588 79.2768L137.232 82.589Z" fill="#F9DD16"/>
<path d="M137.332 82.2251C137.17 82.8875 136.476 85.8414 136.171 86.6458C135.909 87.538 135.671 88.4392 135.488 89.3349C135.17 90.3105 135.025 90.9506 134.674 91.9532C134.545 92.8174 134.333 93.6259 134.08 94.4871M132.675 77.5457C132.734 77.6756 132.932 78.5785 132.947 79.1562C132.819 79.7573 132.577 81.9178 132.318 82.6436C132.1 83.4482 131.92 84.262 131.777 85.0825C131.512 85.9652 131.401 86.5471 131.107 87.4527C131.02 88.2403 130.851 88.9732 130.644 89.7527" stroke="black" stroke-width="1.18464"/>
<path d="M184.332 78.2458C187.978 82.5054 188.932 89.2672 188.124 93.0089M168.903 102.275L168.976 102.148C168.748 102.547 168.922 102.32 168.546 101.409C168.132 100.929 167.904 98.6577 168.605 97.4294C168.88 96.7997 169.334 95.8535 169.673 95.2592C169.769 95.0908 170.033 94.9277 170.129 94.7582M142.318 87.431L142.245 87.5576L141.956 88.0661C141.58 88.7257 141.082 89.3211 140.739 89.9027C140.375 90.5378 139.83 91.0723 139.466 91.7084C139.008 92.2988 138.596 93.0894 138.121 93.7C137.672 94.4301 137.181 94.9445 136.739 95.7195M136.739 95.7195C136.359 96.3312 136.06 96.6095 135.665 97.3018L136.739 95.7195ZM128.999 74.3927C129.06 74.5164 129.289 75.3693 129.324 75.9102C129.221 76.4685 129.063 78.4809 128.836 79.1516C128.656 79.8998 128.5 80.6581 128.395 81.4149C128.167 82.2322 128.08 82.7722 127.824 83.6084C127.768 84.345 127.63 85.0238 127.456 85.7461M144.697 98.7163C143.839 97.7701 143.307 98.0887 142.738 98.0286C142.103 98.1182 140.938 98.6004 139.735 99.7147C139.294 100.157 138.926 100.481 138.346 100.954C138.08 101.333 137.867 101.473 137.579 101.702M212.373 69.9265L212.3 70.0541C212.528 69.6559 212.365 69.8794 212.528 70.8488C212.762 71.522 212.778 71.9832 213.04 72.6355M198.457 73.0709C198.409 73.1556 197.987 82.5382 198.343 83.7614C198.436 84.5392 198.627 85.1954 198.707 86.1246C198.69 86.6825 198.808 87.1544 198.83 87.699C199.134 88.3079 199.182 88.9116 199.498 89.4034C199.638 90.0715 200.177 90.116 200.447 90.7436C200.836 91.1847 201.475 91.9615 201.864 92.3132M190.985 98.5524C190.694 98.4441 189.959 97.8327 189.325 97.497C188.613 97.0703 186.89 94.9115 186.853 93.4283" stroke="black" stroke-width="1.04835"/>
<path d="M198.564 85.4627C198.539 85.5056 197.536 86.4152 195.892 87.9541C193.796 89.7403 188.151 92.7487 187.476 92.9847C186.829 93.2476 186.01 93.9043 185.377 93.9805C184.644 94.2406 183.918 94.3283 183.228 94.466C182.387 94.6124 181.673 94.7389 181.023 94.7532C179.048 95.5231 168.796 94.8657 168.27 94.7353C167.673 94.7086 167.077 94.6588 166.484 94.5858C165.992 94.6842 165.416 94.6176 164.755 94.6336C163.959 94.5443 163.497 94.6801 162.823 94.7383C162.286 94.9954 161.396 95.2504 160.788 95.6217C159.962 95.9194 159.453 96.3448 158.882 96.5748C158.281 97.0316 150.146 101.353 149.753 101.545C148.903 101.881 145.865 102.661 145.18 100.557C145.013 99.7332 144.657 98.8761 144.654 98.25C144.437 97.4931 144.6 96.6966 144.663 95.9987C145.477 92.4788 146.68 91.1211 147.019 90.5268L147.382 89.8917M222.019 79.2658L221.946 79.3924C222.142 79.0494 222.05 79.2294 221.526 79.8302C220.999 80.2207 220.344 80.8463 219.864 81.253C219.378 81.6958 218.905 82.3304 218.476 82.4923C218.033 83.0249 217.491 83.18 216.901 83.4624C216.193 83.6846 215.511 83.9804 214.866 84.3448C213.985 84.7696 213.432 85.1843 212.614 85.6101C212.097 86.2142 211.581 86.5843 211.137 87.302C210.698 87.9669 210.264 88.5352 209.847 89.2653L208.831 91.046M213.726 128.693L213.872 128.437C213.602 128.908 213.695 128.785 213.959 127.986C213.993 127.016 214.265 125.852 214.303 124.997C214.481 124.097 214.663 123.125 214.702 122.209C214.681 121.135 214.715 120.174 214.586 119.135C214.604 118.183 214.522 117.192 214.524 116.258C214.538 115.334 214.493 114.541 214.318 113.637C214.322 112.965 214.31 112.043 214.17 111.214C214.281 110.569 214.112 109.966 213.988 109.442C213.766 108.435 213.686 107.849 213.453 106.804C213.309 106.245 213.173 105.531 212.957 104.693C212.895 103.902 212.499 102.866 212.347 102.182C212.125 101.676 211.907 100.993 211.834 100.395C211.603 99.8387 211.27 99.1592 211.193 98.5358C210.947 98.0546 210.69 97.311 210.424 96.6055C210.192 96.026 210.031 95.3157 209.782 94.747C209.537 94.0319 209.229 93.4166 209.084 92.6901C208.835 92.4366 208.786 92.1667 208.654 91.9513" stroke="black" stroke-width="1.04835"/>
<path d="M213.732 74.1056C212.774 76.0838 210.377 78.9408 210.342 79.0041L208.011 83.2361C206.971 85.56 207.555 86.5233 207.953 87.2174C208.776 88.7573 208.902 89.5799 209.509 90.7519C209.705 92.1966 207.096 92.5965 207.059 92.6598C201.599 94.3263 199.026 89.1437 199.006 88.882C198.361 86.1852 198.471 85.7446 200.144 85.2467C202.056 84.8803 202.818 84.8833 203.78 84.2437C205.6 82.9924 206.985 79.075 207.021 79.0107C207.057 78.9463 207.36 76.7743 207.36 76.7743C207.533 75.7264 207.07 74.7473 207.671 73.0997C208.433 71.5145 208.875 71.09 210.56 71.0168C212.758 70.8927 214.41 72.473 213.732 74.1056Z" fill="#F9DD16" stroke="black" stroke-width="1.04835"/>
<path d="M284.978 82.6377C284.654 82.7083 281.751 84.1602 281.805 84.2496C281.859 84.3386 279.455 91.259 279.401 91.1695C279.347 91.0814 277.412 85.2526 277.23 85.3583C277.05 85.4636 270.859 86.3167 270.768 86.3691C270.678 86.4215 275.309 80.3603 275.309 80.3603L274.509 73.9893L279.627 75.802C279.627 75.802 284.917 71.6372 285.008 71.5848C285.097 71.5318 283.724 77.1322 283.724 77.1322L286.534 80.771C286.534 80.771 285.051 82.3554 284.978 82.6377Z" fill="#F9DD16" stroke="black" stroke-width="1.04841"/>
<path d="M226.763 155.326C230.563 157.667 252.452 160.833 255.869 161.24C260.169 160.741 266.233 161.137 270.813 162.514C275.203 164.277 279.634 164.093 282.548 161.798C286.526 159.525 287.902 155.772 289.636 152.41C290.285 150.639 290.272 148.775 289.483 147.245C288.064 143.989 288.846 143.169 288.519 141.318C293.162 130.559 293.873 118.134 294.821 108.931C294.543 103.58 295.014 99.471 295.62 97.8045C298.123 93.8113 301.875 92.0886 303.772 91.3297L324.854 85.4528C330.295 83.3592 326.619 79.7693 325.489 80.12C321.807 79.6798 321.856 75.7904 304.783 80.2323L293.713 79.0995C293.713 79.0995 291.53 77.4532 291.311 77.5811C285.322 76.6358 284.54 80.4729 284.943 82.7567L285.884 87.7527C285.884 87.7527 283.926 95.3167 284.055 95.5325C278.746 101.682 271.096 121.214 270.668 124.944C270.506 128.442 269.149 127.843 269.591 131.23C269.67 133.884 269.315 132.234 270.35 137.68C270.611 139.321 268.56 139.241 267.376 138.792C257.22 132.852 250.048 130.14 239.476 124.923L222.441 134.982L226.763 155.326Z" fill="white" stroke="black" stroke-width="1.36293"/>
<path d="M311.129 88.6769C310.922 88.7377 304.019 80.9485 304.019 80.9485C304.019 80.9485 307.928 80.0476 307.954 80.0921L315.866 87.233L311.129 88.6769Z" fill="#F9DD16"/>
<path d="M311.399 88.944C310.897 88.474 308.641 86.4037 308.085 85.7416C307.43 85.0718 306.754 84.418 306.057 83.813C305.356 83.0541 304.865 82.6095 304.157 81.8093C303.46 81.266 302.854 80.681 302.221 80.0339M317.847 87.3221C317.703 87.3075 316.808 87.0239 316.292 86.7473C315.826 86.3377 314.044 85.0497 313.534 84.4652C312.934 83.8772 312.307 83.316 311.656 82.7833C311.01 82.1158 310.553 81.7299 309.902 81.026C309.252 80.5574 308.69 80.0466 308.107 79.4796" stroke="black" stroke-width="1.1847"/>
<path d="M291.443 130.952C285.87 131.923 279.438 129.349 276.545 126.787M277.977 105.782L278.052 105.908C277.815 105.514 277.928 105.775 278.919 105.912C279.547 105.8 281.662 106.743 282.394 107.955C282.812 108.504 283.419 109.365 283.773 109.951C283.873 110.117 283.886 110.423 283.987 110.591M304.324 90.582L304.249 90.4566L303.946 89.9554C303.552 89.305 303.276 88.5831 302.936 87.9992C302.558 87.3717 302.359 86.6397 301.98 86.0116C301.689 85.3257 301.198 84.5791 300.897 83.869C300.478 83.121 300.27 82.4455 299.808 81.681M299.808 81.681C299.459 81.0514 299.363 80.6575 298.95 79.9745L299.808 81.681ZM322.459 85.7716C322.319 85.762 321.454 85.5291 320.96 85.2882C320.52 84.9211 318.826 83.7789 318.348 83.2497C317.779 82.7218 317.189 82.2093 316.575 81.7407C315.968 81.1376 315.536 80.7927 314.927 80.1561C314.306 79.7397 313.778 79.2818 313.228 78.7721M293.196 86.9556C294.457 86.6992 294.442 86.0867 294.779 85.6321C295.018 85.0461 295.174 83.8131 294.793 82.2306C294.624 81.6339 294.522 81.1582 294.395 80.4281C294.193 80.0114 294.177 79.7601 294.119 79.4005M284.773 158.992L284.697 158.866C284.934 159.26 284.819 159.009 283.883 158.662C283.174 158.524 282.76 158.307 282.054 158.203M288.95 145.57C288.9 145.486 280.845 140.428 279.59 140.119C278.858 139.808 278.185 139.643 277.326 139.245C276.843 138.951 276.369 138.815 275.878 138.561C275.19 138.515 274.634 138.254 274.043 138.276C273.385 138.061 273.076 138.498 272.389 138.413C271.806 138.524 270.802 138.679 270.299 138.833M270.233 126.446C270.474 126.253 271.38 125.933 271.991 125.562C272.723 125.169 275.485 124.784 276.81 125.495" stroke="black" stroke-width="1.04841"/>
<path d="M277.981 139.454C277.955 139.412 277.655 138.102 277.12 135.933C276.593 133.253 276.761 126.94 276.889 126.248C276.981 125.565 276.811 124.539 277.06 123.962C277.197 123.207 277.482 122.546 277.705 121.889C277.996 121.099 278.241 120.428 278.553 119.868C278.861 117.801 284.558 109.402 284.935 109.019C285.256 108.524 285.598 108.042 285.958 107.573C286.117 107.105 286.464 106.648 286.779 106.077C287.255 105.444 287.366 104.983 287.651 104.38C287.693 103.794 287.913 102.909 287.889 102.205C288.039 101.353 287.919 100.706 288.001 100.105C287.899 99.3641 288.153 90.2743 288.18 89.8431C288.308 88.9511 289.137 85.9744 291.333 86.4446C292.142 86.7153 293.075 86.8414 293.628 87.1526C294.403 87.3464 295.023 87.8845 295.607 88.2877C298.301 90.7437 298.896 92.4476 299.251 93.0338L299.629 93.6604M271.731 162.527L271.656 162.402C271.86 162.741 271.747 162.573 271.48 161.825C271.399 161.181 271.175 160.31 271.056 159.698C270.909 159.062 270.586 158.341 270.657 157.895C270.409 157.252 270.543 156.712 270.589 156.068C270.747 155.354 270.827 154.625 270.827 153.894C270.893 152.931 270.804 152.253 270.837 151.343C270.563 150.6 270.494 149.976 270.084 149.238C269.717 148.532 269.433 147.877 268.999 147.156L267.937 145.4M232.33 130.714L232.482 130.966C232.202 130.501 232.264 130.641 232.836 131.267C233.673 131.781 234.563 132.595 235.297 133.056C236.001 133.658 236.767 134.3 237.554 134.792C238.511 135.312 239.341 135.822 240.32 136.233C241.15 136.725 242.063 137.151 242.885 137.621C243.693 138.095 244.413 138.454 245.297 138.758C245.887 139.098 246.706 139.549 247.506 139.845C248.019 140.263 248.633 140.421 249.157 140.578C250.155 140.893 250.712 141.119 251.748 141.443C252.312 141.601 253.01 141.842 253.856 142.078C254.583 142.421 255.694 142.603 256.372 142.816C256.929 142.881 257.639 143.038 258.202 143.274C258.807 143.357 259.572 143.413 260.16 143.66C260.707 143.691 261.49 143.845 262.245 143.972C262.871 144.064 263.577 144.283 264.202 144.356C264.955 144.505 265.65 144.551 266.362 144.792C266.71 144.707 266.972 144.8 267.228 144.796" stroke="black" stroke-width="1.04841"/>
<path d="M280.413 158.057C279.149 156.25 277.829 152.779 277.791 152.717L275.226 148.613C273.698 146.563 272.558 146.578 271.748 146.57C269.981 146.499 269.193 146.195 267.858 146.125C266.487 145.568 267.437 143.146 267.4 143.083C268.658 137.6 274.507 138.005 274.748 138.119C277.446 138.92 277.779 139.234 277.382 140.908C276.751 142.719 276.367 143.367 276.451 144.506C276.645 146.682 279.404 149.823 279.443 149.886C279.482 149.949 281.243 151.295 281.243 151.295C282.08 151.967 283.174 152.063 284.325 153.4C285.341 154.843 285.495 155.431 284.718 156.903C283.73 158.836 281.513 159.451 280.413 158.057Z" fill="#F9DD16" stroke="black" stroke-width="1.04841"/>
<path d="M237.332 214.442C237.432 214.13 237.602 210.932 237.496 210.933C237.391 210.934 232.494 205.422 232.6 205.42C232.705 205.419 238.805 206.69 238.803 206.483C238.8 206.277 241.139 200.578 241.138 200.475C241.137 200.372 244.164 207.351 244.164 207.351L250.176 209.86L246.024 213.31C246.024 213.31 247.053 219.899 247.054 220.002C247.056 220.105 242.807 216.132 242.807 216.132L238.199 216.701C238.199 216.701 237.544 214.645 237.332 214.442Z" fill="#F9DD16" stroke="black" stroke-width="1.04841"/>
<path d="M202.361 128.475C198.401 130.539 184.685 147.589 182.621 150.294C180.914 154.206 177.539 159.17 174.039 162.379C170.294 165.234 168.244 169.099 168.811 172.729C168.828 177.254 171.447 180.305 173.543 183.465C174.779 184.905 176.428 185.827 178.169 185.921C181.746 186.344 182.078 187.42 183.872 188.07C191.032 197.411 201.623 204.238 209.256 209.654C214.108 212.097 217.493 214.556 218.658 215.907C220.927 220.037 220.571 224.095 220.293 226.09L214.946 246.982C214.074 252.663 219.072 251.331 219.326 250.193C221.552 247.279 224.954 249.268 229.564 232.508L236.088 223.65C236.088 223.65 238.628 222.617 238.625 222.366C242.447 217.74 239.458 215.153 237.244 214.352L232.374 212.651C232.374 212.651 226.688 207.197 226.433 207.198C223.666 199.598 210.279 183.303 207.207 181.071C204.206 179.181 205.412 178.326 202.207 177.007C199.83 175.744 201.46 176.269 196.146 174.422C194.571 173.822 195.665 172.117 196.651 171.333C206.954 165.661 212.924 160.913 222.797 154.525L222.439 134.984L202.361 128.475Z" fill="white" stroke="black" stroke-width="1.36293"/>
<path d="M218.957 233.682C219.007 233.475 229.314 231.499 229.314 231.499C229.314 231.499 228.157 235.278 228.105 235.278L217.865 238.438L218.957 233.682Z" fill="#F9DD16"/>
<path d="M218.587 233.778C219.252 233.586 222.202 232.702 223.063 232.56C223.98 232.338 224.893 232.09 225.774 231.8C226.792 231.583 227.429 231.387 228.488 231.185C229.314 230.864 230.132 230.641 231.018 230.427M216.797 240.08C216.882 239.964 217.578 239.345 218.08 239.044C218.673 238.853 220.697 237.98 221.467 237.839C222.284 237.622 223.092 237.37 223.886 237.082C224.796 236.867 225.364 236.671 226.31 236.469C227.047 236.15 227.777 235.928 228.568 235.715" stroke="black" stroke-width="1.1847"/>
<path d="M191.544 195.749C193.47 190.519 198.949 186.332 202.65 185.151M220.438 196.89L220.29 196.892C220.755 196.887 220.469 196.852 219.854 197.627C219.639 198.218 217.752 199.547 216.319 199.563C215.627 199.643 214.566 199.729 213.872 199.737C213.676 199.739 213.4 199.596 213.203 199.599M220.676 226.935L220.824 226.933L221.417 226.926C222.186 226.917 222.96 227.043 223.644 227.046C224.386 227.038 225.13 227.236 225.872 227.228C226.622 227.323 227.524 227.279 228.3 227.379C229.168 227.396 229.867 227.557 230.771 227.547M230.771 227.547C231.5 227.565 231.895 227.681 232.703 227.671L230.771 227.547ZM215.861 244.783C215.939 244.669 216.576 244.049 217.035 243.749C217.578 243.558 219.43 242.688 220.134 242.546C220.883 242.326 221.63 242.08 222.349 241.792C223.183 241.578 223.702 241.383 224.567 241.183C225.244 240.863 225.911 240.642 226.635 240.429M229.426 219.276C229.022 220.478 229.569 220.772 229.801 221.287C230.198 221.783 231.206 222.534 232.79 223.002C233.401 223.157 233.871 223.308 234.577 223.565C235.045 223.603 235.275 223.714 235.62 223.845M170.172 176.029L170.321 176.027C169.856 176.032 170.135 176.059 170.907 175.436C171.383 174.901 171.781 174.658 172.225 174.109M179.911 186.307C180.01 186.306 188.486 181.981 189.386 181.068C190.024 180.6 190.507 180.11 191.285 179.578C191.785 179.314 192.142 178.978 192.611 178.687C192.995 178.125 193.503 177.782 193.777 177.268C194.296 176.815 194.065 176.334 194.483 175.791C194.676 175.239 195.041 174.307 195.156 173.801M206.1 179.949C206.151 180.25 205.98 181.182 206.002 181.888C205.983 182.708 204.944 185.252 203.656 186.025" stroke="black" stroke-width="1.04841"/>
<path d="M190.774 180.03C190.824 180.03 192.128 180.43 194.306 181.061C196.93 181.955 202.407 185.259 202.953 185.715C203.509 186.135 204.497 186.505 204.881 187.005C205.478 187.5 205.918 188.074 206.385 188.592C206.936 189.236 207.405 189.781 207.743 190.327C209.41 191.624 213.965 200.68 214.113 201.193C214.389 201.715 214.643 202.247 214.876 202.788C215.209 203.158 215.439 203.682 215.784 204.237C216.104 204.959 216.455 205.285 216.844 205.829C217.34 206.158 218.01 206.788 218.641 207.121C219.317 207.676 219.947 207.896 220.436 208.268C221.139 208.552 229.019 213.32 229.386 213.56C230.108 214.115 232.316 216.312 230.806 217.946C230.163 218.499 229.587 219.23 229.036 219.545C228.479 220.108 227.695 220.366 227.049 220.661C223.54 221.725 221.742 221.379 221.049 221.387L220.308 221.395M173.569 163.155L173.717 163.153C173.316 163.157 173.521 163.146 174.312 163.292C174.92 163.546 175.8 163.791 176.398 163.997C177.032 164.19 177.828 164.276 178.185 164.56C178.876 164.671 179.284 165.055 179.828 165.417C180.379 165.909 180.981 166.342 181.625 166.708C182.44 167.247 183.083 167.511 183.867 167.994C184.658 168.133 185.243 168.387 186.098 168.407C186.903 168.449 187.621 168.535 188.473 168.526L190.55 168.502M221.262 145.541L220.964 145.545C221.514 145.539 221.359 145.521 220.523 145.695C219.652 146.15 218.49 146.5 217.718 146.894C216.836 147.192 215.888 147.523 215.062 147.946C214.126 148.5 213.263 148.952 212.412 149.58C211.564 150.04 210.733 150.604 209.909 151.068C209.088 151.519 208.412 151.953 207.703 152.553C207.11 152.885 206.303 153.356 205.643 153.888C205.019 154.116 204.573 154.56 204.173 154.927C203.397 155.619 202.921 155.98 202.118 156.7C201.697 157.102 201.136 157.575 200.506 158.177C199.841 158.624 199.126 159.478 198.6 159.949C198.264 160.391 197.772 160.917 197.283 161.278C196.908 161.752 196.476 162.375 195.965 162.752C195.665 163.202 195.138 163.791 194.65 164.37C194.256 164.857 193.711 165.349 193.335 165.845C192.827 166.41 192.44 166.98 191.872 167.465C191.773 167.804 191.56 167.98 191.436 168.2" stroke="black" stroke-width="1.04841"/>
<path d="M173.173 172.785C175.395 172.614 179.112 173.228 179.186 173.227L184.081 173.098C186.649 172.824 187.205 171.846 187.617 171.16C188.562 169.691 189.223 169.173 189.952 168.071C191.126 167.183 192.785 169.205 192.859 169.204C197.062 173.021 193.785 177.799 193.564 177.947C191.512 179.842 191.069 179.969 189.792 178.793C188.512 177.348 188.133 176.697 187.088 176.198C185.074 175.273 180.93 176.05 180.855 176.051C180.78 176.053 178.715 176.878 178.715 176.878C177.705 177.254 177.075 178.137 175.322 178.448C173.544 178.59 172.949 178.427 172.041 177.028C170.83 175.219 171.395 173.023 173.173 172.785Z" fill="#F9DD16" stroke="black" stroke-width="1.04841"/>
<path d="M226.662 155.264C224.818 154.265 223.395 154.032 222.696 154.464C221.806 148.459 221.045 142.451 219.845 136.455C208.484 131.368 206.086 130.212 202.36 128.475C204.161 127.405 205.078 126.31 205.045 125.5C210.78 127.748 216.452 130.109 222.333 132.09C232.486 124.966 234.701 123.502 238.092 121.2C238.134 123.269 238.642 124.598 239.372 124.978C234.529 128.733 229.617 132.38 224.935 136.396C226.145 148.607 226.327 151.225 226.662 155.264Z" fill="#F9DD16" stroke="black" stroke-width="1.36286"/>
</g>
<defs>
<clipPath id="clip0_2_90">
<rect width="450" height="300" fill="white"/>
</clipPath>
</defs>
</svg>