<?xml version="1.0" encoding="UTF-8" standalone="no"?>
<svg width="900" height="600" version="1.1" id="svg2" sodipodi:docname="Flag_of_Norfolk_Island.svg" inkscape:version="1.3 (0e150ed6c4, 2023-07-21)" xmlns:inkscape="http://www.inkscape.org/namespaces/inkscape" xmlns:sodipodi="http://sodipodi.sourceforge.net/DTD/sodipodi-0.dtd" xmlns="http://www.w3.org/2000/svg" xmlns:svg="http://www.w3.org/2000/svg">
  <defs id="defs2"/>
  <sodipodi:namedview id="namedview2" pagecolor="#ffffff" bordercolor="#000000" borderopacity="0.25" inkscape:showpageshadow="2" inkscape:pageopacity="0.0" inkscape:pagecheckerboard="0" inkscape:deskcolor="#d1d1d1" inkscape:zoom="0.76141304" inkscape:cx="460.32834" inkscape:cy="306.66667" inkscape:window-width="1920" inkscape:window-height="991" inkscape:window-x="-9" inkscape:window-y="-9" inkscape:window-maximized="1" inkscape:current-layer="svg2"/>
  <rect width="900" height="600" fill="#007934" id="rect1" x="0" y="0" style="stroke-width:1.1296"/>
  <rect width="352.17392" height="600" x="273.91306" fill="#ffffff" id="rect2" y="0" style="stroke-width:1.1296"/>
  <path fill="#007934" d="m 453.24783,104.91033 c -0.78668,8.51458 -1.575,17.03347 -2.36162,25.54826 -2.88353,0.43448 -5.76626,0.86705 -8.64979,1.30148 -2e-5,0 6.0075,3.37333 7.0564,6.76183 0.16786,0.5427 0.10076,0.99186 -0.14224,1.32975 -0.0798,0.10563 -0.20209,0.223 -0.31299,0.31122 -1.74023,1.33738 -6.88578,0.70731 -6.88578,0.70731 0,-2e-5 6.81652,5.75159 7.34097,7.83694 0.0117,0.0488 0.0274,0.0943 0.0284,0.14158 -6.7e-4,0.039 0.008,0.1035 0,0.14138 -0.008,0.03 -0.0448,0.0837 -0.0569,0.11324 -0.0466,0.10233 -0.1305,0.21766 -0.22762,0.31121 -1.60259,1.48031 -9.162,1.89558 -9.162,1.89558 0,0 8.38144,5.97629 8.90589,9.3647 0.47528,3.07085 0.0767,4.86948 0,5.17744 -0.5857,-0.50029 -14.10163,-11.85848 -22.81989,-8.54423 -0.43423,0.22559 -0.6912,0.44054 -0.7967,0.65072 -0.0464,0.10485 -0.0562,0.23553 -0.0284,0.33951 0.61077,1.88931 12.93946,3.8247 21.53935,11.26076 -0.21332,1.86085 -24.51032,-5.91916 -25.40837,-1.04684 0.75995,1.37387 26.14794,5.03315 28.0262,8.34623 -9.35002,0.34767 -28.66598,-2.05777 -28.0262,1.01857 -1.95398,3.55167 18.24359,1.54565 26.71728,4.44189 2.48391,2.80663 2.24414,5.16433 -2.07714,5.46036 -8.1673,-3.88302 -26.4463,-6.7684 -26.49032,-1.81067 4.3e-4,0.006 -9e-4,0.0233 0,0.0283 0.002,0.006 0.0264,0.0235 0.0284,0.0283 0.008,0.0156 0.0156,0.0423 0.0286,0.0566 0.0292,0.0279 0.0941,0.059 0.14224,0.0849 2.06413,1.02962 19.08587,0.52739 25.49446,4.75308 -9.08599,2.05513 -39.89544,-4.16916 -40.09109,-1.13166 0.87772,1.41868 5.75286,7.64501 14.14174,7.38421 8.38849,-0.26074 27.7963,3.39144 29.10815,5.99791 0.0409,0.0814 0.0405,0.165 0.0284,0.22635 -0.56802,1.81781 -25.55804,-5.54507 -35.16848,-1.01856 -9.96065,4.69242 28.56326,1.84784 34.85544,7.5823 6.29159,5.73447 -12.57652,-0.53754 -12.57652,-0.53754 2e-5,0 -26.20076,-3.63493 -30.13239,-1.81067 -3.93252,1.82515 -8.39378,5.99792 -8.39378,5.99792 0,0 2.61411,5.20102 5.23546,4.15898 0.39935,-0.15895 0.6723,-0.19137 0.82516,-0.14138 0.004,0.002 0.0249,-0.002 0.0286,0 0.004,0.002 0.025,0.0263 0.0286,0.0283 0.006,0.004 0.0233,0.0235 0.0286,0.0283 0.004,0.006 0.0239,0.0229 0.0284,0.0283 0.002,0.002 0.0268,0.0251 0.0286,0.0283 0.0117,0.0261 0.0241,0.0812 0.0284,0.11326 0.0618,0.78193 -1.79256,3.0556 -1.79256,3.0556 0,0 36.71608,8.84455 44.8425,16.66369 8.12622,7.82041 -46.66305,-12.25076 -46.66305,-12.25076 0,-2e-5 -22.02065,8.07926 1.30882,8.60077 -2.60032,3.78274 1.07706,6.111 1.30881,6.25256 0,0 38.80566,8.08816 42.73729,14.34424 3.93251,6.25597 -26.47468,-6.00516 -33.29022,-9.39297 -6.57558,-3.26964 -24.87913,1.72917 -25.92098,3.2536 -0.008,0.0117 -0.0233,0.0449 -0.0284,0.0566 -0.002,0.006 0.002,0.0227 0,0.0283 -0.002,0.0117 -8.6e-4,0.0463 0,0.0566 9e-4,0.006 -9.2e-4,0.0233 0,0.0283 0.002,0.006 -0.002,0.0233 0,0.0283 0.002,0.006 0.026,0.0231 0.0284,0.0283 0.002,0.006 -0.002,0.0231 0,0.0283 0.0117,0.0209 0.0405,0.0639 0.0569,0.0849 0.004,0.006 0.0237,0.0231 0.0284,0.0283 1.17254,1.28475 9.34278,3.05404 9.58881,5.26236 9e-4,0.01 -6.6e-4,0.0196 0,0.0283 0.004,0.11794 -0.0327,0.25748 -0.0855,0.36781 -1.02913,1.98421 -10.77652,2.82825 -11.1825,4.69653 -0.006,0.032 -0.0284,0.0806 -0.0284,0.11327 -2e-5,2.08594 49.03533,12.25173 62.14207,23.19945 13.10674,10.94772 -38.52587,-13.04315 -38.52587,-13.04315 0,0 2.88362,3.90815 0,4.95117 -2.88362,1.04205 -13.12729,-14.59565 -29.90446,-4.95117 -3.05569,3.96812 14.64848,7.11763 19.14946,7.55393 -1.53695,3.92929 -2.87717,5.2291 3.41442,9.13843 0.68803,0.42767 1.07433,0.68605 1.22351,0.82049 0.004,0.004 0.0245,0.0243 0.0286,0.0284 l 0.0284,0.0284 c 0.002,0.002 -9e-4,0.0258 0,0.0284 -5.7e-4,0.002 9e-4,0.027 0,0.0284 -0.002,3.9e-4 -0.0251,-1.1e-4 -0.0284,0 -0.004,-1.9e-4 -0.0241,4.7e-4 -0.0286,0 -0.9745,-0.15163 -12.27717,-5.92738 -13.45891,-6.16774 -0.0117,-0.002 -0.0481,7.1e-4 -0.0569,0 -0.004,2.2e-4 -0.0256,-5.2e-4 -0.0284,0 0,0.52146 1.30882,6.79011 1.30882,6.79011 -5.80813,-4.69154 -12.82891,-6.10611 -19.40478,-1.30138 -0.01,0.27795 -0.0579,4.77636 6.54427,7.55404 -3.72121,7.56058 4.20515,5.21315 16.78793,12.25076 -18.70043,-4.85991 -20.19815,4.16758 -6.82875,6.25255 13.36941,2.08497 50.07718,3.39144 58.72794,14.59859 1.82475,2.36426 2.31994,3.55304 1.96327,3.93261 -1.44284,1.3002 -14.71696,-8.24625 -16.64511,-8.60078 -0.004,0.002 -0.0245,-0.004 -0.0286,0 -0.004,0.004 -0.0245,0.0239 -0.0286,0.0284 -0.0245,0.0305 -0.061,0.091 -0.0855,0.14146 -0.47109,1.03696 -0.91051,5.54527 -0.91051,5.54527 -5.59232,-3.21857 -10.72369,-6.10572 -17.41304,-7.46912 -0.52444,1.04205 -0.41451,2.52274 -0.93895,3.56479 -6.07041,-4.35287 -11.35859,-7.41327 -20.1737,-7.83695 -0.34963,1.3906 -0.70315,2.79665 -1.0528,4.18725 2e-5,-2e-5 -7.34889,-9.12316 -21.76729,0 -8.05069,5.73897 30.41316,2.07802 36.70435,8.85541 6.29159,6.77651 1.30892,7.80868 1.30892,7.80868 -5.2427,-1.91123 -10.46348,-3.80378 -15.70598,-5.715 0,0 -18.63,-3.40621 -23.8725,0.76388 -5.2427,4.17091 76.54206,14.33935 78.90065,25.54826 1.59065,6.07852 -19.215,-6.36505 -37.21696,-11.71272 -0.69632,1.98969 -1.40918,3.97996 -2.10551,5.96965 -0.42693,-0.41997 -7.39056,-7.15491 -15.19435,-8.31786 -0.002,0.004 -0.0264,0.0217 -0.0286,0.0284 -9.2e-4,0.01 2.3e-4,0.0438 0,0.0567 0.0117,0.85545 1.59339,6.95983 1.59339,6.95983 -2e-5,2e-5 -20.16489,-9.39414 -30.38772,-4.44189 -10.2238,4.95225 35.64098,7.55805 39.83479,12.25076 0.45868,0.51314 0.6496,0.88721 0.62596,1.13175 -0.008,0.0423 -0.0366,0.10663 -0.0569,0.14126 -1.01309,1.47532 -14.69054,-3.9735 -16.04739,-1.27311 -1.57334,3.12799 -23.85,-5.72605 -23.58783,-1.55611 0.26222,4.17091 3.15832,6.50719 3.15832,6.50719 -2e-5,0 46.39891,4.42849 47.97195,9.90196 1.57246,5.47376 -25.69304,-3.11214 -25.69304,-3.11214 0,0 -2.63749,3.89074 -0.54061,5.715 0.082,0.0712 0.14733,0.1395 0.17061,0.16963 6.9e-4,0.002 -1.5e-4,0.0268 0,0.0284 -0.002,-6.3e-4 -0.0248,9e-4 -0.0286,0 -0.94772,-0.31086 -15.72065,-9.93229 -14.28359,-2.54632 -5.78084,-2.28874 -20.70587,-9.378 -18.60848,-3.90434 2.06609,5.39325 40.99402,13.0725 42.13957,13.2975 -1.02943,0.0806 -17.49228,1.45018 -16.73022,5.74337 -22.06467,-13.36597 -22.01283,-5.35069 -21.51098,-4.7248 9e-4,8.6e-4 -9.2e-4,0.0276 0,0.0284 -1.23955,-0.19487 -28.38522,-6.91924 -6.80038,4.69653 11.57576,6.22898 14.39707,8.65732 14.45478,9.59107 3.8e-4,0.0205 0.002,0.0657 0,0.0849 -0.004,0.0249 -0.0198,0.0626 -0.0284,0.0849 -0.002,0.006 -0.0256,0.0231 -0.0286,0.0284 -0.01,0.0156 -0.0176,0.0425 -0.0284,0.0565 -0.004,0.004 -0.0245,0.0239 -0.0286,0.0284 -0.004,0.004 -0.0239,0.0243 -0.0286,0.0284 -0.004,0.004 -0.0235,0.0245 -0.0284,0.0284 -0.006,0.004 -0.0231,0.0247 -0.0286,0.0284 -0.44874,0.28546 -1.53313,0.16592 -1.8495,0.16963 -0.0137,4.9e-4 -0.0471,-9e-4 -0.0569,0 -0.006,0.002 -0.0274,0.0254 -0.0284,0.0284 l 0.0284,0.0284 c 0.30796,0.45525 2.00152,5.05233 1.90634,5.85646 -0.002,0.0137 -0.025,0.0462 -0.0286,0.0565 -0.002,0.004 0.002,0.0243 0,0.0284 -9e-4,0.002 -0.027,-0.002 -0.0286,0 -0.002,9e-4 0.002,0.0274 0,0.0284 -0.002,5.1e-4 -0.0264,-3.5e-4 -0.0286,0 -0.002,-2.3e-4 -0.0254,4.7e-4 -0.0286,0 -0.94594,-0.23695 -15.24229,-7.83371 -20.14533,-8.34613 -4.9814,-0.52151 -28.57989,6.50876 -3.41442,17.45609 25.16546,10.94732 40.62326,-2.61127 54.51652,-1.04684 13.89326,1.56356 20.45935,3.91451 19.14945,8.34623 -1.31116,4.43084 -14.21217,-14.52717 -27.77087,1.8673 -15.42326,-3.03476 -25.88673,-4.79093 -17.92565,6.47893 -25.18728,-9.35951 -40.56848,2.85544 -8.84895,7.80867 31.16934,0.91348 50.33347,-7.55403 50.33347,-7.55403 0,2e-5 5.25816,9.66326 12.8612,2.88577 7.24549,-6.45887 7.81542,1.76136 8.08073,2.54632 0.004,0.0117 0.0245,0.0217 0.0286,0.0284 0.002,0.002 -0.002,0.0272 0,0.0284 0.002,0 0.0254,3.9e-4 0.0284,0 0.55978,-0.1399 7.3125,-3.14042 7.3125,-3.14042 0.61187,2e-5 1.2376,0 1.8495,0 V 494.836 c 8.47595,0.0869 16.93272,0.16767 25.40837,0.25464 0,0 -8.12651,-54.4637 -3.67043,-61.76152 4.31765,-7.06999 8.39964,-6.30685 8.64978,-6.25256 0,0 16.51794,4.9412 18.35217,4.15898 0.0213,-0.01 0.065,-0.0176 0.0855,-0.0284 0.0137,-0.008 0.044,-0.0205 0.0569,-0.0284 0.0319,-0.0202 0.0847,-0.0614 0.11387,-0.0849 0.006,-0.004 0.0227,-0.0235 0.0286,-0.0284 1.34237,-1.21852 -0.0252,-6.02697 8.36531,-5.29063 2.59073,-0.93706 1.60219,-5.04382 3.27209,-6.05456 0.0295,-0.0176 0.0828,-0.0415 0.11386,-0.0565 0.063,-0.0295 0.1575,-0.0636 0.22763,-0.0849 0.0978,-0.028 0.22879,-0.0452 0.34143,-0.0566 2.62135,-0.26072 53.20956,14.06348 64.21891,0.50927 -2.88362,-7.55873 -12.85728,-0.51537 -15.47902,-0.25465 -2.35917,2e-5 -12.32804,-4.69154 -18.09587,0 -5.24269,-3.90932 -29.07978,-6.50719 -29.07978,-6.50719 -3.1458,-3.12799 56.88489,1.55358 60.29217,-0.79218 7.07743,-7.03819 -13.10087,-6.25011 -16.24695,-3.90433 -5.59233,-3.3887 -12.61957,-3.13797 -16.90142,-0.79216 -2.05317,-4.88348 -21.54521,-2.76838 -32.37945,-4.15898 -3.46813,-2.02255 -2.89067,-3.18346 -0.54061,-4.44189 22.63109,0.95603 45.14772,3.89436 67.88935,2.88577 6.1468,-7.96793 -7.73814,-10.97315 -16.24696,-4.18725 -4.9951,-8.16809 -15.20706,-0.2655 -22.02261,-1.04684 -6.81515,-0.78223 -3.67053,-9.11142 4.97935,-7.80867 8.65076,1.30373 24.11902,-0.53168 27.00196,-4.44189 2.88264,-3.90933 -1.72135,-7.87001 -15.99066,-4.15898 -4.82938,-4.6933 -15.44869,-0.008 -20.43,1.55612 -6.62664,-3.67572 -22.04413,-0.51151 -27.28663,0.79218 -5.13254,-3.17231 27.00196,-8.34613 27.00196,-8.34613 12.40337,-0.21819 19.39989,-2.35213 23.33152,-3.39506 18.75131,-9.99293 -0.26108,-11.05435 -10.10054,-3.79115 -6.10768,-4.74134 -11.90837,0.40993 -17.41304,2.23513 -5.16092,1.71029 -14.70522,2.95601 -15.87718,2.4614 -0.0137,-0.006 -0.0458,-0.0213 -0.0569,-0.0284 -0.002,-0.002 -0.0256,-0.0258 -0.0286,-0.0284 l -0.0284,-0.0284 c -9e-4,-0.002 6.3e-4,-0.0254 0,-0.0284 0,-0.002 -4.5e-4,-0.025 0,-0.0284 0.004,-0.0117 0.0204,-0.043 0.0284,-0.0565 0.7731,-1.19181 14.90968,-9.81782 14.90968,-9.81782 0,-2e-5 18.35217,-1.31753 22.0226,-1.83894 2.2365,-0.3178 10.07511,-4.00745 10.07218,-5.37554 -0.0657,-0.84919 -3.33157,-0.77121 -13.23098,1.72584 -8.91294,0.7822 -14.14761,0.27679 -17.55587,0.53752 -5.481,-0.56344 -7.79018,-1.13791 -8.25143,-1.64093 -0.0176,-0.0213 -0.046,-0.0638 -0.0569,-0.0849 -0.0383,-0.0908 -0.0137,-0.19577 0.0569,-0.28293 0.0176,-0.0202 0.062,-0.065 0.0855,-0.0849 1.34354,-1.06699 10.01543,-1.83904 10.01543,-1.83904 0,2e-5 26.47467,-2.41415 28.22576,-3.79115 0.006,-0.006 0.0229,-0.0229 0.0284,-0.0284 0.01,-0.0117 0.0223,-0.0458 0.0284,-0.0565 0.002,-0.006 0.027,-0.0231 0.0286,-0.0284 0.54475,-10.76283 -22.4599,-5.79297 -23.07522,-5.715 0.0657,-7.56812 -20.76261,-0.11113 -21.73794,0 -0.002,-2.7e-4 -0.0272,5.1e-4 -0.0286,0 -0.89613,-0.52497 -1.28671,-1.07892 -1.36575,-1.58439 -0.0256,-0.19272 -9e-4,-0.40958 0.0569,-0.59414 0.52173,-1.56052 3.67044,-2.77259 3.67044,-2.77259 5.76714,-1.38971 14.39021,-1.82357 16.64511,-3.64969 0,0 16.27728,-0.14244 18.21032,-4.44189 -3.99433,-10.9575 -34.4475,1.93969 -38.52587,3.90433 -0.81714,0 -1.31752,-0.20412 -1.56492,-0.53755 -1.33904,-1.94537 5.26921,-8.35151 5.49147,-8.5725 0.002,-0.002 0.0233,-0.0262 0.0284,-0.0284 1.00712,-0.28407 25.3213,-1.5211 36.93228,-17.17337 0.81947,-9.67823 -13.88544,5.46036 -13.88544,5.46036 -1.09809,-12.55207 -15.98967,0.79605 -24.64043,1.83903 -8.64988,1.04205 -8.90315,-3.91422 -2.87384,-4.69653 6.02844,-0.78132 12.8387,-0.26981 16.24696,-9.39297 3.40718,-9.12316 13.6438,0.53124 15.47902,-2.8575 1.7774,-3.28285 -3.34927,-6.08116 -3.67043,-6.25255 10e-6,0 7.59678,-7.84301 -4.72324,-7.58231 -12.19598,0.25813 -27.96359,-1.51982 -28.2825,-1.55602 0.76486,-0.29029 13.18695,-4.94912 24.86837,-4.69653 12.05902,0.26072 5.50222,-8.60087 -6.03216,-8.60087 -11.53369,0 -17.55587,-3.90434 -17.55587,-3.90434 6.55386,-2.43264 13.10772,-4.86675 19.66109,-7.29939 -0.43707,-1.82426 -0.87184,-3.6361 -1.30891,-5.46036 0,0 11.52978,-9.12972 -4.72324,-7.04475 -16.25283,2.08595 -18.09587,2.34822 -18.09587,2.34822 -2e-5,0 -31.99402,4.87497 -32.75022,4.95117 -0.002,0 -0.0254,3.4e-4 -0.0286,0 -0.30968,-0.0482 -3.4786,-1.02727 -4.06879,-2.23513 -0.0176,-0.0396 -0.0446,-0.10134 -0.0569,-0.14138 -0.0137,-0.0482 -0.0239,-0.12087 -0.0286,-0.16968 -0.004,-0.057 -0.01,-0.14021 0,-0.19804 0.13207,-0.63651 1.11894,-1.32476 3.64207,-1.95212 8.38849,-2.08507 38.025,-8.07163 42.48098,-6.5072 0.57451,0.20154 0.99391,0.15601 1.25198,-0.0566 1.67087,-1.50339 -3.888,-11.09152 -17.5275,-12.44837 -15.72848,-1.56355 -25.40837,3.90434 -25.40837,3.90434 0,0 -10.23457,-3.66212 -0.7967,-6.79011 9.4365,-3.12711 24.38413,1.04684 24.38413,1.04684 -2e-5,0 16.76739,-4.95979 2.87374,-7.04475 -13.89326,-2.08595 -18.27391,1.87542 -24.64043,2.09367 -2.54123,-3.15421 21.81228,-3.89886 23.33152,-6.5072 -2.56852,-4.6933 -17.63609,0 -26.46196,0 -3.75398,-1.58341 -4.00236,-4.15985 0.25609,-5.74327 9.00039,-0.34765 17.46098,0.17789 26.46196,-0.16969 -0.26222,-4.77841 0.006,-10.44293 -0.25607,-15.22076 -11.41631,-2.0742 -24.80381,1.51895 -31.21337,1.21657 1.7145,-5.21394 26.36315,-6.55973 29.10815,-7.9784 5.66335,-7.03889 -23.64163,-0.10877 -24.35576,0 -5.20171,-0.76413 -4.88671,-4.03337 -1.59339,-5.99792 7.60177,-0.86912 24.64924,1.10769 23.35989,-4.01752 -0.98785,-4.80258 -11.81935,-2.23122 -16.27533,-1.18829 -4.45598,1.04204 -11.0113,0.25462 -11.0113,0.25462 -2.85359,-3.82011 25.69891,-2.25871 25.43772,-5.20572 -0.37237,-3.38351 -18.09881,-1.0529 -24.12881,-0.79219 -4.63735,-3.1815 21.80152,-5.2968 23.04685,-5.715 0.006,-0.004 0.025,-0.0253 0.0286,-0.0283 0.98795,-8.66494 -18.35217,0 -22.0226,0 -0.63083,0 -1.10828,-0.1566 -1.45116,-0.42439 -0.0765,-0.0619 -0.16337,-0.15427 -0.22764,-0.22633 -1.26,-1.46162 -0.14224,-4.80971 -0.14224,-4.80971 0,0 6.89214,-3.07947 7.3125,-3.81943 0.002,-0.006 0.0264,-0.0227 0.0286,-0.0283 8.4e-4,-0.002 -6.1e-4,-0.0256 0,-0.0283 -8e-5,-0.002 3.1e-4,-0.0259 0,-0.0283 -0.002,-0.004 -0.0256,-0.0241 -0.0286,-0.0283 -0.0156,-0.0219 -0.054,-0.0594 -0.0855,-0.0849 -0.80904,-0.61948 -5.54967,-2.18318 -6.17429,-2.23513 -0.004,-2.1e-4 -0.0245,0 -0.0286,0 -0.004,-9.8e-4 -0.0247,-0.0261 -0.0284,-0.0283 -0.008,-0.006 -0.0217,-0.02 -0.0286,-0.0283 -0.004,-0.004 -0.0252,-0.0229 -0.0286,-0.0283 -0.35706,-0.72867 0.0855,-5.9131 0.0855,-5.9131 0,0 5.46115,-4.06927 5.80451,-5.68673 0.002,-0.0137 -0.002,-0.0435 0,-0.0566 0.002,-0.0137 -6.6e-4,-0.0441 0,-0.0566 3e-4,-0.0117 4.9e-4,-0.0445 0,-0.0566 -8.6e-4,-0.0117 0.002,-0.0451 0,-0.0566 -9e-4,-0.006 9e-4,-0.0229 0,-0.0283 -0.004,-0.0156 -0.0223,-0.0414 -0.0286,-0.0566 -0.002,-0.006 0.002,-0.0233 0,-0.0283 -0.002,-0.004 -0.0258,-0.0235 -0.0286,-0.0283 -0.006,-0.01 -0.0221,-0.0196 -0.0286,-0.0283 -0.01,-0.0137 -0.0176,-0.0445 -0.0284,-0.0566 -0.004,-0.004 -0.0241,-0.0245 -0.0286,-0.0283 -0.0219,-0.0176 -0.0591,-0.0406 -0.0855,-0.0566 -0.0117,-0.006 -0.0454,-0.0225 -0.0569,-0.0283 -1.37925,-0.6585 -7.08486,1.30148 -7.08486,1.30148 -2e-5,-1.73768 0,-3.46803 0,-5.20582 -2e-5,0 4.99549,-0.53995 5.51994,-2.88577 0.0307,-0.13746 0.0156,-0.27259 0,-0.39609 -0.008,-0.049 -0.0137,-0.12284 -0.0286,-0.16969 -0.0325,-0.10076 -0.0816,-0.22004 -0.14243,-0.31122 -0.01,-0.0137 -0.0466,-0.0429 -0.0569,-0.0566 -1.143,-1.4671 -5.80451,-1.66921 -5.80451,-1.66921 -0.87406,-9.12287 -1.74355,-18.23576 -2.61773,-27.35804 z m -4.66631,89.34652 V 197.85 c 2e-5,0 -5.87866,-0.29941 -6.97109,-1.21657 -0.006,-0.004 -0.0239,-0.0239 -0.0286,-0.0283 -0.004,-0.004 -0.0241,-0.0237 -0.0286,-0.0283 -0.004,-0.004 -0.0245,-0.0237 -0.0286,-0.0283 -0.004,-0.004 -0.0249,-0.0237 -0.0286,-0.0283 -0.01,-0.0137 -0.0211,-0.0422 -0.0286,-0.0566 -0.002,-0.004 0.002,-0.0235 0,-0.0283 -0.002,-0.004 -0.027,-0.0235 -0.0284,-0.0283 -9e-4,-0.004 8.6e-4,-0.0235 0,-0.0283 -9e-4,-0.01 10e-5,-0.0465 0,-0.0566 2.1e-4,-0.006 -4.9e-4,-0.0233 0,-0.0283 7.8e-4,-0.006 -9e-4,-0.0231 0,-0.0283 0.006,-0.0209 0.0176,-0.0635 0.0284,-0.0849 0.002,-0.006 0.0254,-0.0229 0.0286,-0.0283 0.0137,-0.0219 0.0383,-0.0627 0.0569,-0.0849 0.006,-0.006 0.0231,-0.0227 0.0286,-0.0283 0.0117,-0.0117 0.0444,-0.0451 0.0569,-0.0566 0.0393,-0.0345 0.0908,-0.0773 0.14224,-0.11327 1.97227,-1.37299 5.91016,-1.34061 6.68651,-1.55602 0.006,-0.002 0.0225,0.002 0.0286,0 0.006,-0.002 0.0235,-0.0261 0.0284,-0.0283 0.004,-0.002 0.0249,0.002 0.0286,0 0.004,-0.002 0.0256,-0.0259 0.0286,-0.0283 z m 8.33684,4.78135 c 0.20312,0 11.70978,0.0984 12.71837,1.58439 0.008,0.0117 0.0221,0.0437 0.0286,0.0566 0.008,0.0196 0.0237,0.0651 0.0286,0.0849 0.002,0.0137 -7.1e-4,0.0429 0,0.0566 -1.4e-4,0.0205 0.004,0.0641 0,0.0849 -0.006,0.0211 -0.0196,0.0633 -0.0286,0.0849 -0.87863,1.85596 -12.51978,2.97068 -12.51978,2.97068 l -0.22762,-4.9228 z m -0.65444,7.10129 c 0.004,0.002 0.0243,-0.002 0.0284,0 0.004,0.002 0.0227,-0.002 0.0286,0 0.68314,0.17945 5.44901,0.33308 6.03215,1.13165 0.006,0.008 0.0241,0.0207 0.0286,0.0283 0.002,0.004 -0.002,0.0245 0,0.0283 0.004,0.008 0.0258,0.0204 0.0286,0.0283 9e-4,0.004 -8.4e-4,0.0245 0,0.0283 4.3e-4,0.004 -2.6e-4,0.0243 0,0.0283 2e-5,0.004 1.6e-4,0.0242 0,0.0283 -3.9e-4,0.004 5.7e-4,0.0241 0,0.0283 -7.8e-4,0.004 9e-4,0.0241 0,0.0283 -0.002,0.004 -0.027,0.0239 -0.0286,0.0283 -0.002,0.004 0.002,0.0239 0,0.0283 -0.008,0.0137 -0.0196,0.0429 -0.0286,0.0566 -0.004,0.004 -0.025,0.0237 -0.0286,0.0283 -0.004,0.004 0.004,0.0237 0,0.0283 -0.98794,1.20053 -5.38591,1.52785 -5.60533,1.52785 -0.002,-3.9e-4 -0.0268,7.3e-4 -0.0286,0 -0.002,-9e-4 0.002,-0.0269 0,-0.0283 -0.004,-0.006 -0.0249,-0.0221 -0.0284,-0.0283 -0.20105,-0.40588 -0.39837,-2.99896 -0.39837,-2.99896 z m -35.08337,9.44961 c 3.75701,-0.19409 11.21283,0.68569 25.20978,4.5268 0,0.2962 0.28343,3.90502 0.17061,4.49844 -9e-4,0.004 -0.0272,0.0241 -0.0286,0.0283 -9e-4,0.004 9.2e-4,0.0255 0,0.0283 -0.002,0.002 -0.0252,0.0279 -0.0286,0.0283 -0.21942,-0.10954 -25.46511,-7.32316 -27.77087,-7.21448 -0.063,0.002 -0.1393,0.006 -0.19917,0 -0.0509,-0.006 -0.12287,-0.0176 -0.17061,-0.0283 -0.0628,-0.0156 -0.144,-0.0598 -0.19915,-0.0849 -0.0204,-0.01 -0.0663,-0.0176 -0.0855,-0.0283 -0.006,-0.004 -0.0223,-0.0245 -0.0286,-0.0283 -0.0767,-0.0517 -0.1528,-0.13025 -0.19915,-0.19804 -0.004,-0.006 -0.0252,-0.0229 -0.0286,-0.0283 -0.006,-0.0117 -0.0233,-0.0455 -0.0284,-0.0566 -0.002,-0.006 0.002,-0.0225 0,-0.0283 -0.004,-0.0117 -0.0258,-0.0449 -0.0286,-0.0566 -9e-4,-0.006 9e-4,-0.0223 0,-0.0283 -9e-4,-0.0117 2.9e-4,-0.0443 0,-0.0566 2.3e-4,-0.0117 -9e-4,-0.0441 0,-0.0566 0.004,-0.0314 0.0176,-0.081 0.0286,-0.11327 0.0311,-0.0773 0.0949,-0.17691 0.17061,-0.25462 0.38604,-0.37544 1.35284,-0.75259 3.21525,-0.84878 z m 13.08815,10.66598 c 4.02418,-0.14353 13.66533,2.16293 14.19848,2.03703 -2e-5,0.76444 0.42662,4.37772 -0.0569,5.1209 -0.004,0.006 -0.0237,0.0225 -0.0286,0.0283 -0.004,0.006 -0.0235,0.0235 -0.0286,0.0283 -0.006,0.004 -0.0233,0.0246 -0.0286,0.0283 -0.01,0.006 -0.0456,0.0239 -0.0569,0.0283 -0.006,0.002 -0.0223,-9e-4 -0.0286,0 -0.0117,9e-4 -0.044,9e-4 -0.0569,0 -0.006,-9e-4 -0.0215,0.002 -0.0286,0 -0.81947,-0.2037 -15.04761,-4.69722 -15.5925,-6.53547 -0.008,-0.0302 -6.4e-4,-0.0843 0,-0.11326 0.006,-0.0641 0.0372,-0.14236 0.0855,-0.19804 0.006,-0.006 0.0219,-0.0225 0.0286,-0.0283 0.006,-0.006 0.0215,-0.0225 0.0286,-0.0283 0.27315,-0.21527 0.83677,-0.34183 1.56493,-0.36779 z m 39.60685,9.90195 c 3.8429,-0.0747 6.55601,0.25242 5.5484,1.41457 -2.74421,3.16506 -21.70956,5.77164 -21.70956,5.77164 l -0.34143,-5.77164 c 0.40731,-0.0596 10.0438,-1.28906 16.50326,-1.41457 z m -54.28858,17.99413 c 3.22503,-0.17066 10.73543,1.59036 27.45782,8.62914 l 0.11387,4.15898 c 2e-5,0 -28.31869,-8.54021 -29.30674,-9.95869 -0.48623,-0.69828 -1.39011,-2.66371 1.73563,-2.82923 z m 55.48402,6.19601 c 0.86157,-0.0435 1.46798,0.0431 1.67869,0.25463 0.006,0.006 0.0239,0.0223 0.0284,0.0283 0.0117,0.0196 0.0217,0.0643 0.0286,0.0849 0.004,0.0213 0.029,0.0617 0.0286,0.0849 -0.0117,0.11931 -0.10174,0.28001 -0.25609,0.45268 -2.63504,2.9478 -16.78793,5.88473 -16.78793,5.88473 0,0 -2e-5,-3.70986 0,-3.81942 0.002,1.9e-4 0.0254,-4e-5 0.0286,0 0.64515,-0.0219 11.03381,-2.75752 15.25109,-2.97069 z m -62.08533,0.50926 c 4.22775,-0.2229 13.77391,2.0068 35.16848,12.08054 -2e-5,0.10448 0.19056,3.57877 0.11367,3.90434 -0.002,-4.1e-4 -0.0256,8e-4 -0.0286,0 -1.26842,-0.40653 -38.4975,-13.41 -38.4975,-13.41 -0.0397,-0.14255 -0.59975,-2.37189 3.24372,-2.57459 z m 70.87696,16.26848 c 1.08186,-0.0452 1.79168,0.0479 1.96327,0.28291 0.0156,0.0272 0.0264,0.0818 0.0286,0.11328 -0.004,0.11309 -0.0984,0.25722 -0.28455,0.42437 -3.37598,3.03163 -24.89968,6.70451 -25.66468,6.76184 -0.004,0 -0.0252,4.3e-4 -0.0286,0 -0.002,-9e-4 -0.0254,0.002 -0.0284,0 -0.002,-0.002 -0.0258,-0.0256 -0.0286,-0.0284 -0.008,-0.01 -0.0225,-0.0428 -0.0286,-0.0566 -0.002,-0.006 0.002,-0.0231 0,-0.0284 -0.004,-0.0117 -0.0256,-0.0438 -0.0286,-0.0565 -0.13676,-0.70268 0.30878,-3.1635 0.34144,-3.50824 3.1e-4,-0.006 0,-0.0249 0,-0.0284 9e-4,9e-4 0.0264,-9e-4 0.0286,0 0.004,6.7e-4 0.0237,0.028 0.0284,0.0284 0.006,2.8e-4 0.0221,-8e-5 0.0286,0 1.37768,-0.0229 17.87282,-3.66319 23.67293,-3.90433 z m -63.27979,9.47788 c 6.40771,-0.32915 25.82316,8.52329 26.775,8.79887 0.002,4.8e-4 0.0266,-6e-5 0.0286,0 -0.0998,0.39547 -0.11622,3.59158 -0.19915,4.10233 -0.002,0.0137 0.002,0.0491 0,0.0566 -7.9e-4,0.002 -0.0278,-8.8e-4 -0.0286,0 -0.52341,-0.27875 -27.13304,-11.25979 -28.31087,-10.38327 -0.73405,-1.72966 0.027,-2.48683 1.73563,-2.57458 z m 57.24783,2.31994 c 1.33327,-0.0583 2.30919,6.3e-4 2.61773,0.16963 0.0374,0.0235 0.0716,0.0564 0.0855,0.0849 0.002,0.004 -9e-4,0.0233 0,0.0284 2.3e-4,0.006 4.7e-4,0.0231 0,0.0284 -0.002,0.0117 0.006,0.0452 0,0.0566 -0.004,0.006 -0.0243,0.0223 -0.0286,0.0284 -0.0196,0.0248 -0.0544,0.0575 -0.0855,0.0849 -1.97579,1.74639 -20.31554,5.34717 -20.31554,5.34717 0,0 -0.0855,-3.37852 -0.0855,-3.70623 0.5209,-0.11074 12.36033,-1.88277 17.81217,-2.12195 z m -1.47962,11.68435 c 1.29043,-0.0426 2.20529,0.0305 2.41856,0.25462 l 0.0284,0.0284 c 0.006,0.01 -0.002,0.0462 0,0.0565 8.8e-4,0.006 0.0282,0.0229 0.0286,0.0284 -2.7e-4,0.006 -0.0276,0.0227 -0.0286,0.0284 -0.002,0.0117 0.006,0.0442 0,0.0566 -0.004,0.006 -0.0247,0.0219 -0.0284,0.0284 -0.0157,0.0256 -0.0341,0.0583 -0.0569,0.0849 -0.0176,0.0202 -0.0626,0.0644 -0.0855,0.0849 -1.97951,1.69885 -17.5275,4.95108 -17.5275,4.95108 0,0 -0.42679,-3.70986 -0.42679,-3.81943 0.43129,0.01 10.82641,-1.62225 15.6776,-1.78239 z m -65.61293,0.93363 c 3.75133,-0.23584 13.04706,1.30119 35.99315,9.59107 l 0.76825,4.47016 c 0,2e-5 -38.20598,-12.26348 -39.29381,-12.64696 0.002,0 -8.2e-4,-0.0252 0,-0.0284 9e-4,-0.0237 -0.006,-0.081 0,-0.14165 0.0137,-0.1123 0.0708,-0.28907 0.19916,-0.4527 0.26925,-0.32818 0.88438,-0.70106 2.33315,-0.79215 z m 50.33347,9.70425 c 0.46041,0.0978 6.86671,0.30927 8.05227,1.30148 0.006,0.004 0.0233,0.0237 0.0286,0.0284 0.004,0.004 0.0237,0.0235 0.0286,0.0284 0.004,0.004 0.0245,0.0235 0.0286,0.0284 0.0117,0.0156 0.0196,0.0417 0.0286,0.0565 0.002,0.006 0.0258,0.0233 0.0284,0.0284 0.01,0.0206 0.0233,0.0638 0.0286,0.0849 9e-4,0.006 -8e-4,0.0229 0,0.0284 5.3e-4,0.006 -2.3e-4,0.0229 0,0.0284 -4e-5,0.0117 9e-4,0.0456 0,0.0566 -8.8e-4,0.006 9e-4,0.0227 0,0.0284 -0.002,0.0117 -0.0245,0.045 -0.0286,0.0565 -0.002,0.006 0.002,0.0225 0,0.0284 -0.006,0.0117 -0.0213,0.0448 -0.0284,0.0565 -0.98795,1.52824 -7.68238,2.09368 -7.68238,2.09368 0,0 -0.32891,-2.99465 -0.48371,-3.93261 z m 15.5074,8.71396 c 1.49175,-0.0356 2.56245,0.13422 2.78843,0.56582 0.12717,0.29254 -0.11759,0.72468 -0.82512,1.30148 -5.48854,4.47515 -17.44239,5.34718 -17.44239,5.34718 v -4.92281 c 0.002,2.4e-4 0.0229,3.7e-4 0.0286,0 0.67903,-0.0802 10.49772,-2.1736 15.45065,-2.29167 z m 15.22271,4.58335 c 1.8947,-0.0714 2.71106,0.24442 2.95914,0.67901 0.02,0.0385 0.0454,0.10095 0.0569,0.14165 0.0176,0.0736 0.0346,0.17609 0.0286,0.25466 -0.061,0.56072 -0.67173,1.23261 -1.1381,1.66921 -1.86653,1.74639 -31.61153,11.11891 -31.61153,11.11891 0,0 -0.22396,-6.21685 -0.11387,-6.76184 17.39055,-5.24054 25.89653,-6.95357 29.81935,-7.10129 z m -19.23456,17.59793 c 1.89107,-0.07 3.36981,0.0411 3.81277,0.48093 0.0272,0.0292 0.0673,0.081 0.0855,0.11329 0.01,0.0198 0.0219,0.064 0.0284,0.0849 0.006,0.0211 -0.002,0.0626 0,0.0849 9.2e-4,0.0378 0.01,0.10037 0,0.14165 -0.0215,0.0833 -0.0788,0.18587 -0.14244,0.28294 -2.54484,2.48341 -14.90967,2.8575 -14.90967,2.8575 v -3.08387 c 2.3219,-0.0779 7.49045,-0.82718 11.12478,-0.96193 z m 12.37695,5.06426 c 0.58786,-0.0137 0.94635,0.0812 0.99587,0.25464 0.002,0.0137 0.002,0.0421 0,0.0566 -0.0297,0.14439 -0.20244,0.36317 -0.56907,0.62241 -4.93953,3.4919 -23.50272,7.07302 -23.50272,7.07302 0,0 0.23001,-2.44037 0.34144,-3.02723 0.51632,-0.008 18.2925,-4.87125 22.7338,-4.97945 z m 10.41359,3.87607 c 2.18739,-0.0206 3.85689,0.3004 4.80864,0.99019 0.002,0 0.0268,-4.7e-4 0.0286,0 7e-4,0.002 -5.3e-4,0.0252 0,0.0284 3.3e-4,0.004 -1.6e-4,0.0245 0,0.0284 -4.5e-4,0.01 9e-4,0.0454 0,0.0566 -0.0931,0.67654 -1.48373,3.85923 -6.37357,5.23408 -6.09877,-0.54166 -31.98228,7.06706 -32.49391,7.18621 -0.002,-0.002 -0.0272,0.002 -0.0284,0 -0.002,-0.01 9e-4,-0.0425 0,-0.0565 -0.0137,-0.48739 0.34145,-3.11215 0.34143,-3.11215 8.92223,-5.3055 25.13642,-10.27467 33.71674,-10.35489 z m -66.26739,14.93804 c 0.0571,-9e-4 0.10996,-2e-4 0.17061,0 11.19619,1.20052 15.37826,5.36801 16.56,7.04475 -2.23249,3.89544 -19.92717,-4.84083 -18.0675,-6.70519 0.21285,-0.189 0.65093,-0.32532 1.33728,-0.33952 z m 64.16217,0.73561 c 0.44468,-0.0176 0.8508,0.0736 1.13811,0.25463 0.11739,0.0781 0.23322,0.19017 0.31301,0.3112 0.1078,0.17374 0.17961,0.40889 0.19917,0.67901 -1.16961,1.79707 -7.21868,1.0126 -7.59707,0.96192 0.30472,-0.108 3.79741,-2.12536 5.94675,-2.20676 z m -23.98597,12.10892 c 0.83017,-0.034 1.51992,0.0493 1.90633,0.28289 0.0468,0.0301 0.10526,0.0777 0.14224,0.11328 0.0117,0.0117 0.0464,0.0436 0.0569,0.0565 0.0156,0.0196 0.0444,0.0638 0.0569,0.0849 0.0117,0.0215 0.0196,0.0618 0.0286,0.0849 0.0704,0.21144 0.043,0.5034 -0.14224,0.84876 -1.75637,3.27463 -9.44648,2.06531 -9.44648,2.06531 v -2.29168 c 0.002,6.5e-4 0.0266,-5.3e-4 0.0284,0 0.43315,0.0366 4.67139,-1.13459 7.36943,-1.24484 z m -45.2974,8.62914 c 2.36593,-0.11876 4.43387,1.42454 6.60121,2.6594 4.82938,-0.98227 14.73848,0.7639 14.73848,0.7639 v 4.35698 c 0,0.004 -0.0223,0.0252 -0.0286,0.0284 -0.004,0.002 -0.0225,-0.002 -0.0284,0 -0.90199,0.15613 -12.51489,-0.34836 -15.10826,-1.98039 -2.11539,0 -8.10391,-3.14266 -8.56447,-4.75307 -0.004,-0.0137 -0.0256,-0.0432 -0.0286,-0.0566 -0.004,-0.0199 0.002,-0.0653 0,-0.0849 -6.5e-4,-0.0137 -2.5e-4,-0.044 0,-0.0567 6.7e-4,-0.0117 -0.002,-0.0446 0,-0.0565 9e-4,-0.006 -9.2e-4,-0.0223 0,-0.0284 0.002,-0.0117 0.0247,-0.0452 0.0286,-0.0565 0.002,-0.006 -0.002,-0.0227 0,-0.0284 0.82758,-0.43851 1.63398,-0.66936 2.39008,-0.7073 z m 50.78935,2.15022 c 1.81654,-0.0972 2.58672,0.46107 1.16658,2.4614 -3.95159,5.56611 -14.17011,3.28187 -14.17011,3.28187 l -0.4268,-3.4517 c 3.60421,0.13989 10.19153,-2.11813 13.42957,-2.29167 z m -38.18445,11.28815 c 4.13178,-0.19155 8.62131,1.44293 8.62131,1.44293 0.10585,0.20966 2.22065,4.35493 0.34145,5.74327 -0.0698,0.0501 -0.14654,0.0992 -0.22762,0.14146 -2.30547,1.20052 -13.32391,-0.93817 -13.97054,-5.34717 1.29659,-1.36086 3.2175,-1.88697 5.23536,-1.98049 z m -42.59446,2.15021 c 3.77873,-0.22546 7.99963,2.08918 8.47908,2.31995 0.006,0.002 0.0248,-9e-4 0.0284,0 0,0.1305 -0.14224,4.18725 -0.14224,4.18725 0,0 -7.48028,-2.07342 -9.84522,-6.25255 0.47414,-0.12855 0.98051,-0.22487 1.47962,-0.25465 z m 71.95891,0.56585 c 4.21445,-0.0266 9.3061,0.95787 10.04381,2.37659 0.1395,0.29015 0.098,0.61002 -0.17061,0.93365 -2.08595,2.50963 -13.94218,0.22633 -13.94218,0.22633 v -3.0555 c 1.05486,-0.30682 2.50787,-0.47113 4.06879,-0.48099 z" id="path2" style="stroke-width:0.978261"/>
</svg>