<svg width="1350" height="900" viewBox="0 0 1350 900" fill="none" xmlns="http://www.w3.org/2000/svg">
<g clip-path="url(#clip0_5_161)">
<path d="M1350 0H0V900H1350V0Z" fill="#012169"/>
<path d="M321.437 777.265C309.344 777.116 435.141 677.834 540.431 550.666C678.424 383.999 975.626 117.156 1063 73.7954C1072.13 69.2633 1044.27 96.8685 1040.65 105.811C947.368 269.551 1021.82 578.535 1138.41 733.859C1173.47 773.622 1171.67 775.71 1236.66 779.605V788.605L321.437 777.265Z" fill="#FFD100"/>
<path d="M313.85 795.325C313.85 795.325 304.974 804.728 305 811.731C305.029 819.503 314.957 829.778 314.957 829.778L1217.68 844.543L1234.28 828.137L1211.04 806.809L313.85 795.325Z" fill="#FFD100"/>
<path d="M339.937 92.1056H301.938V111.168L339.937 92.1056Z" fill="white"/>
<path d="M339.937 92.1057L309.195 114.515L298.027 99.0932L339.937 92.1057Z" fill="white"/>
<path d="M325.423 136.925L313.681 100.666L295.611 106.556L325.423 136.925Z" fill="white"/>
<path d="M325.422 136.925L294.681 114.515L305.848 99.0934L325.422 136.925Z" fill="white"/>
<path d="M278.454 136.926L309.195 114.516L298.028 99.094L278.454 136.926Z" fill="white"/>
<path d="M278.454 136.925L290.196 100.666L308.265 106.557L278.454 136.925Z" fill="white"/>
<path d="M263.939 92.1063L294.68 114.516L305.848 99.0938L263.939 92.1063Z" fill="white"/>
<path d="M263.939 92.1063L301.938 92.1063L301.938 111.169L263.939 92.1063Z" fill="white"/>
<path d="M301.937 64.4062L290.195 100.666L308.265 106.556L301.937 64.4062Z" fill="white"/>
<path d="M301.937 64.4063L313.68 100.666L295.61 106.556L301.937 64.4063Z" fill="white"/>
<path d="M484.12 225.449H452.455V241.334L484.12 225.449Z" fill="white"/>
<path d="M484.12 225.449L458.502 244.123L449.196 231.271L484.12 225.449Z" fill="white"/>
<path d="M472.025 262.798L462.24 232.582L447.182 237.491L472.025 262.798Z" fill="white"/>
<path d="M472.025 262.798L446.407 244.123L455.713 231.272L472.025 262.798Z" fill="white"/>
<path d="M432.884 262.798L458.502 244.124L449.196 231.272L432.884 262.798Z" fill="white"/>
<path d="M432.884 262.798L442.67 232.582L457.728 237.491L432.884 262.798Z" fill="white"/>
<path d="M420.788 225.449L446.406 244.124L455.713 231.272L420.788 225.449Z" fill="white"/>
<path d="M420.789 225.449L452.455 225.449L452.455 241.335L420.789 225.449Z" fill="white"/>
<path d="M452.454 202.365L442.669 232.582L457.727 237.491L452.454 202.365Z" fill="white"/>
<path d="M452.454 202.366L462.239 232.582L447.181 237.491L452.454 202.366Z" fill="white"/>
<path d="M164.333 269.37H126.334V288.432L164.333 269.37Z" fill="white"/>
<path d="M164.333 269.37L133.592 291.779L122.424 276.357L164.333 269.37Z" fill="white"/>
<path d="M149.819 314.189L138.077 277.93L120.008 283.82L149.819 314.189Z" fill="white"/>
<path d="M149.819 314.189L119.078 291.78L130.245 276.358L149.819 314.189Z" fill="white"/>
<path d="M102.85 314.189L133.592 291.78L122.424 276.358L102.85 314.189Z" fill="white"/>
<path d="M102.85 314.189L114.593 277.93L132.662 283.821L102.85 314.189Z" fill="white"/>
<path d="M88.3355 269.37L119.077 291.78L130.245 276.358L88.3355 269.37Z" fill="white"/>
<path d="M88.3357 269.37L126.334 269.37L126.334 288.433L88.3357 269.37Z" fill="white"/>
<path d="M126.334 241.67L114.592 277.93L132.661 283.82L126.334 241.67Z" fill="white"/>
<path d="M126.334 241.67L138.076 277.93L120.007 283.82L126.334 241.67Z" fill="white"/>
<path d="M346.27 547.548H301.938V569.788L346.27 547.548Z" fill="white"/>
<path d="M346.27 547.548L310.404 573.693L297.375 555.701L346.27 547.548Z" fill="white"/>
<path d="M329.337 599.838L315.637 557.535L294.556 564.408L329.337 599.838Z" fill="white"/>
<path d="M329.336 599.838L293.471 573.693L306.5 555.701L329.336 599.838Z" fill="white"/>
<path d="M274.54 599.838L310.405 573.694L297.376 555.701L274.54 599.838Z" fill="white"/>
<path d="M274.539 599.838L288.239 557.535L309.32 564.408L274.539 599.838Z" fill="white"/>
<path d="M257.605 547.549L293.471 573.694L306.5 555.701L257.605 547.549Z" fill="white"/>
<path d="M257.606 547.549L301.938 547.549L301.938 569.789L257.606 547.549Z" fill="white"/>
<path d="M301.937 515.232L288.238 557.535L309.319 564.407L301.937 515.232Z" fill="white"/>
<path d="M301.937 515.232L315.637 557.535L294.556 564.408L301.937 515.232Z" fill="white"/>
</g>
<defs>
<clipPath id="clip0_5_161">
<rect width="1350" height="900" fill="white"/>
</clipPath>
</defs>
</svg>